<svg width="26" height="28" viewBox="0 0 26 28" fill="none" xmlns="http://www.w3.org/2000/svg">
<g clip-path="url(#clip0_69_341)">
<path fill-rule="evenodd" clip-rule="evenodd" d="M21 0C18.872 3.3 15.853 6.851 14.034 11.469C14.8164 13.265 15.4733 15.1131 16 17C16.2759 15.9818 16.6098 14.9801 17 14C17 9.023 18.856 5.277 21 0ZM9 17C7.512 12.513 4.24 10.034 0 8C3.868 11.136 4.422 15.52 5 20L8.743 23.312C10.215 24.917 12.527 27.451 13 28C17.555 18.555 9.634 7.2 5 0C7.67 6.573 9.717 10.342 9 17ZM17 22C17.0437 22.666 17.0437 23.334 17 24L21 20C21.578 15.52 22.132 11.136 26 8C20.712 10.537 18.134 15.854 17 22Z" fill="#F5F8FF"/>
</g>
<defs>
<clipPath id="clip0_69_341">
<rect width="26" height="28" fill="white"/>
</clipPath>
</defs>
</svg>
