<?xml version="1.0" standalone="no"?>
<!DOCTYPE svg PUBLIC "-//W3C//DTD SVG 20010904//EN"
 "http://www.w3.org/TR/2001/REC-SVG-20010904/DTD/svg10.dtd">
<svg version="1.0" xmlns="http://www.w3.org/2000/svg"
 width="185.000000pt" height="185.000000pt" viewBox="0 0 185.000000 185.000000"
 preserveAspectRatio="xMidYMid meet">

<g transform="translate(0.000000,185.000000) scale(0.100000,-0.100000)"
fill="#000000" stroke="none">
<path d="M669 1755 c-214 -43 -403 -190 -499 -390 -65 -134 -75 -186 -74 -385
0 -163 2 -181 27 -255 38 -114 91 -198 177 -285 87 -87 172 -140 285 -177 69
-22 102 -27 241 -31 l162 -4 83 -84 84 -84 285 0 c209 0 289 3 298 12 30 30
12 56 -159 222 -116 112 -168 170 -163 178 5 7 24 33 43 58 169 221 185 640
34 900 -21 36 -72 99 -113 141 -136 137 -305 200 -532 198 -62 0 -143 -7 -179
-14z"/>
</g>
</svg>
